<svg xmlns="http://www.w3.org/2000/svg" viewBox="0 0 680.85 133.12"><defs><style>.cls-1{fill:#252f62;}.cls-1,.cls-2{fill-rule:evenodd;}.cls-2{fill:#e4072c;}</style></defs><title>Ativo 9</title><g id="Camada_2" data-name="Camada 2"><g id="Camada_1-2" data-name="Camada 1"><path class="cls-1" d="M127.64,98.09c-.93-7-3.11-11.75,1.24-18.72,11-17.83,44.21-12.55,41.93,10.55-1.35,14.34-13.28,22-29.78,19-31.76-5.77-28.85-39.13-36-61.74-2.39-7.27-5.09-10.06-10.9-13.44C84.37,28.08,11.52,3.29,0,.3c2.18,7,7.47,14.94,11.31,18.52,7,6.67,51.68,21.71,62.89,26,20,7.87,18.57,6.67,26.15,32.17,5.39,18.22,9.54,27.28,22.31,35.35,17.74,11.35,49.81,9.76,58.21-16.73C185.44,81,179.32,63.93,162,59c-32.69-9.26-49.09,20.62-34.35,39.14Z"/><path class="cls-1" d="M150.47,132.65c19.82,3.28,35-11,43.27-27,7.27-14.34,8.82-45.91,19.61-51.59,14.32-7.76,68.49-24.49,76.38-32.16C294,17.83,302,8.27,303.12.5c-17.33,4.78-95.89,32.46-103,39.83-15.46,15.44-3.53,73.1-36.73,87.83-4.57,2.1-8.1,3-12.87,4.49Z"/><path class="cls-1" d="M89.55,89.92C88.93,68.81,74.2,68,60.6,63.43c-11.72-3.88-30.3-9.16-40.47-13.94.11,6.18,4.78,15,8,18.92,4.57,5.58,9.13,7,17.54,10.36,10.17,4.28,33.83,10.56,43.89,11.15Z"/><path class="cls-1" d="M209.31,89.92c10.06-.1,30.19-6.37,40.26-10.25,15.15-5.48,19.09-11.06,22.83-26.09L218.34,72.2c-6.33,3.48-7.16,10-9,17.72Z"/><path class="cls-2" d="M452.13,20.81a6.94,6.94,0,0,1-3.84-1,6.65,6.65,0,0,1-2.69-2.59,7.65,7.65,0,0,1-.84-3.89V7.47a8.25,8.25,0,0,1,.84-4A6.52,6.52,0,0,1,448.29.9a7.76,7.76,0,0,1,3.84-.9,8.48,8.48,0,0,1,3.95.9,6.28,6.28,0,0,1,2.59,2.59,8.41,8.41,0,0,1,.93,4v5.87a7.78,7.78,0,0,1-.93,3.89,6.4,6.4,0,0,1-2.59,2.59,7.56,7.56,0,0,1-3.95,1Zm0-2.79a4.08,4.08,0,0,0,2.29-.59,3.38,3.38,0,0,0,1.55-1.6,4.51,4.51,0,0,0,.62-2.39V7.37A4.29,4.29,0,0,0,456,5a3.52,3.52,0,0,0-1.55-1.69,5.14,5.14,0,0,0-2.29-.5,5.43,5.43,0,0,0-2.28.5A5,5,0,0,0,448.29,5a5.48,5.48,0,0,0-.52,2.39v6.07a5.79,5.79,0,0,0,.52,2.39,4.78,4.78,0,0,0,1.56,1.6,4.28,4.28,0,0,0,2.28.59Zm26.26-8.86h7.26a2.43,2.43,0,0,0,1.45-.4,2.17,2.17,0,0,0,1-1.09A4.11,4.11,0,0,0,488.45,6h0a4,4,0,0,0-.31-1.6,2.17,2.17,0,0,0-1-1.09,2.43,2.43,0,0,0-1.45-.4h-7.26V.1h7.16a6.9,6.9,0,0,1,3.21.8,4.84,4.84,0,0,1,2.08,2A6.23,6.23,0,0,1,491.67,6h0a6,6,0,0,1-.83,3.08,6.09,6.09,0,0,1-2.08,2.19,6.84,6.84,0,0,1-3.21.7h-7.16V9.16ZM477.14.1h2.91V20.61h-2.91V.1Zm7.06,11.25,2.9-.59,5.4,9.85H489l-4.77-9.26Zm31.86,9.46a6.89,6.89,0,0,1-3.84-1,6.67,6.67,0,0,1-2.7-2.59,7.78,7.78,0,0,1-.94-3.89V7.47a8.41,8.41,0,0,1,.94-4A6.55,6.55,0,0,1,512.22.9a7.71,7.71,0,0,1,3.84-.9A8.44,8.44,0,0,1,520,.9a6.28,6.28,0,0,1,2.59,2.59,8.3,8.3,0,0,1,.94,4v5.87a7.68,7.68,0,0,1-.94,3.89A6.4,6.4,0,0,1,520,19.82a7.52,7.52,0,0,1-3.94,1Zm0-2.79a4,4,0,0,0,2.28-.59,3.4,3.4,0,0,0,1.56-1.6,4.6,4.6,0,0,0,.62-2.39V7.37A4.38,4.38,0,0,0,519.9,5a3.54,3.54,0,0,0-1.56-1.69,5.09,5.09,0,0,0-2.28-.5,5.51,5.51,0,0,0-2.29.5A4.08,4.08,0,0,0,512.22,5a5.48,5.48,0,0,0-.52,2.39v6.07a5.79,5.79,0,0,0,.52,2.39,3.92,3.92,0,0,0,1.55,1.6,4.34,4.34,0,0,0,2.29.59ZM541.07.2H544V20.61h-2.9V.2Zm1.45,17.63h12.14v2.78H542.52V17.83Z"/><path class="cls-1" d="M428.27,88.73A6.45,6.45,0,0,0,429.51,93a4.43,4.43,0,0,0,3.53,1.5h7.26v14h-9c-5.91,0-10.37-1.7-13.59-5.18s-4.77-8.47-4.77-14.74V2.49h15.36V88.73Zm73.15-28.38c0-5-1.45-8.87-4.15-11.55s-6.64-4.09-11.72-4.09a32.18,32.18,0,0,0-9.24,1.3,32.58,32.58,0,0,0-8,3.88l-11.21-7.37a28.25,28.25,0,0,1,11.73-8.06,44.41,44.41,0,0,1,16.29-2.89,38.85,38.85,0,0,1,16.71,3.28,23.81,23.81,0,0,1,10.58,9.66c2.49,4.19,3.64,9.27,3.64,15.24v48.5H501.42V60.35Zm-19.3,49c-9.65,0-16.91-2-21.69-5.77s-7.26-9.76-7.26-17.63c0-7.37,2.28-13,6.64-16.73s11-5.58,19.93-5.58h22.31l1,11.85H479.84c-4,0-7.06.9-9,2.59s-3,4.39-3,7.87c0,3.88,1.25,6.67,3.95,8.57s6.64,2.78,12,2.78c5.92,0,10.38-.69,13.29-1.89s4.35-3.09,4.35-5.67L503,100.38a17,17,0,0,1-5.08,5,23.85,23.85,0,0,1-6.85,3,41.14,41.14,0,0,1-8.93,1Zm85.3,0a68,68,0,0,1-13.07-1.29,46.86,46.86,0,0,1-11.42-4,40.33,40.33,0,0,1-9.86-6.58h0l9.24-10.75h0a52.18,52.18,0,0,0,12.76,7A36.69,36.69,0,0,0,567.42,96c6.13,0,10.69-.9,13.8-2.69a9,9,0,0,0,4.57-8.17,6.24,6.24,0,0,0-2.49-5.47,15.79,15.79,0,0,0-6.23-2.49c-2.49-.4-5.91-.7-10.48-1.1h-1.24c-.52,0-.94-.1-1.35-.1a1,1,0,0,1-.52-.1h-.62a60.38,60.38,0,0,1-13-2.19A17.68,17.68,0,0,1,541,67.92c-2.39-2.89-3.53-7-3.53-12.45,0-5.28,1.14-9.76,3.43-13.25a20,20,0,0,1,10.27-8q6.69-2.7,16.81-2.69a63.91,63.91,0,0,1,11.73,1.09A49.61,49.61,0,0,1,590.36,36a51.69,51.69,0,0,1,9.75,5.38h0l-9.34,10.85h0a49.09,49.09,0,0,0-11.62-5.48,37.8,37.8,0,0,0-11.21-1.79c-5.19,0-9.13.8-11.83,2.59a8.54,8.54,0,0,0-3.84,7.67,5.21,5.21,0,0,0,2.18,4.68,13.25,13.25,0,0,0,5.61,2.09c2.28.3,5.6.6,9.75.9h.93c.31,0,.63.1,1,.1h.42a1,1,0,0,1,.52.1,64.22,64.22,0,0,1,14,2.09,19,19,0,0,1,9.76,6.37c2.59,3.09,3.94,7.67,3.94,13.64a23.76,23.76,0,0,1-3.63,13.45,22.19,22.19,0,0,1-11,8.06q-7.32,2.7-18.37,2.69Zm80.43,0a68.09,68.09,0,0,1-13.08-1.29,45.88,45.88,0,0,1-11.31-4,40.33,40.33,0,0,1-9.86-6.58h0l9.24-10.75h0a51.46,51.46,0,0,0,12.66,7A36.6,36.6,0,0,0,647.85,96c6.12,0,10.68-.9,13.8-2.69a9,9,0,0,0,4.56-8.17,6.24,6.24,0,0,0-2.49-5.47,15.74,15.74,0,0,0-6.22-2.49c-2.49-.4-5.92-.7-10.48-1.1h-1.25c-.52,0-.93-.1-1.35-.1a1,1,0,0,1-.52-.1h-.62a60.6,60.6,0,0,1-13-2.19,17.8,17.8,0,0,1-8.82-5.77C619.1,65,618,61,618,55.47c0-5.28,1.14-9.76,3.42-13.25a20.29,20.29,0,0,1,10.17-8q6.71-2.7,16.81-2.69a63.75,63.75,0,0,1,11.73,1.09A49.26,49.26,0,0,1,670.78,36a51.69,51.69,0,0,1,9.75,5.38h0l-9.34,10.85h0a49.09,49.09,0,0,0-11.62-5.48,37.75,37.75,0,0,0-11.21-1.79c-5.18,0-9.13.8-11.83,2.59s-3.83,4.28-3.83,7.67a5.21,5.21,0,0,0,2.17,4.68,13.24,13.24,0,0,0,5.71,2.09c2.18.3,5.5.6,9.65.9h.94c.31,0,.62.1,1,.1h.42a1,1,0,0,1,.52.1,64.32,64.32,0,0,1,14,2.09,19,19,0,0,1,9.75,6.37c2.6,3.09,4,7.67,4,13.64a23.77,23.77,0,0,1-3.64,13.45,22.19,22.19,0,0,1-11,8.06q-7.31,2.7-18.36,2.69Z"/><path class="cls-1" d="M399.31,52.78V71.4a44.2,44.2,0,0,1-4.77,20.72A33.74,33.74,0,0,1,381,106a40.53,40.53,0,0,1-20.24,5,43.29,43.29,0,0,1-20.55-4.68,32.6,32.6,0,0,1-13.69-13.05,38.51,38.51,0,0,1-4.78-19.52V42.42a44.13,44.13,0,0,1,4.67-20.71A33.58,33.58,0,0,1,340,7.87,40.32,40.32,0,0,1,360.19,3a39.23,39.23,0,0,1,17.54,3.88,36.94,36.94,0,0,1,13.39,11,39.56,39.56,0,0,1,7.26,16.53H381.67A22.8,22.8,0,0,0,377,25.19a21.48,21.48,0,0,0-7.68-5.77,20.54,20.54,0,0,0-9.13-2,22.33,22.33,0,0,0-11.93,3.08,20.22,20.22,0,0,0-8,8.77,29.28,29.28,0,0,0-2.8,13.14V73.69a23.31,23.31,0,0,0,2.9,12,19.72,19.72,0,0,0,8.09,8,25.45,25.45,0,0,0,12.25,2.79,24.92,24.92,0,0,0,12-2.89A20.11,20.11,0,0,0,380.63,85a29.19,29.19,0,0,0,2.81-13.25V67H361.13V52.78Z"/></g></g></svg>